<svg xmlns="http://www.w3.org/2000/svg" width="40" height="40"><g fill="#122035"><path d="M22.5 40h-5c-1.167 0-2.5-1-2.5-3v-3.5c0-1.667-.833-3.167-2.167-4.333-3-2.334-4.5-5.667-4.5-9.334.167-6.333 5.334-11.333 11.5-11.5C23 8.333 26 9.5 28.167 11.667c2.166 2.166 3.5 5.166 3.5 8.333 0 3.5-1.5 6.833-4.334 9-1.5 1.167-2.333 3-2.333 4.667V37.5c0 1.333-1.167 2.5-2.5 2.5zM20 10c-5.333 0-9.833 4.5-10 9.833 0 3.167 1.333 6.167 3.833 8 1.834 1.5 2.834 3.5 2.834 5.667V37c0 .333 0 1.333.833 1.333h5c.5 0 .833-.333.833-.833v-3.833c0-2.167 1.167-4.5 3-6C28.667 25.833 30 23 30 20c0-2.667-1-5.167-3-7.167C25.167 11 22.667 10 20 10z"/><path d="M24.167 35h-8.334c-.5 0-.833-.333-.833-.833 0-.5.333-.834.833-.834h8.334c.5 0 .833.334.833.834 0 .5-.333.833-.833.833zM20 5c-.5 0-.833-.333-.833-.833V.833c0-.5.333-.833.833-.833.5 0 .833.333.833.833v3.334c0 .5-.333.833-.833.833zm11.167 4.667c-.167 0-.5 0-.667-.167a.806.806 0 010-1.167L32.833 6A.806.806 0 0134 6a.806.806 0 010 1.167L31.667 9.5s-.334.167-.5.167zm8 11.166h-3.334c-.5 0-.833-.333-.833-.833 0-.5.333-.833.833-.833h3.334c.5 0 .833.333.833.833 0 .5-.333.833-.833.833zm-5.667 13.5c-.167 0-.5 0-.667-.166L30.5 31.833a.806.806 0 010-1.166.806.806 0 011.167 0L34 33a.806.806 0 010 1.167c0 .166-.167.166-.5.166zm-27 0c-.167 0-.5 0-.667-.166a.806.806 0 010-1.167l2.334-2.333a.806.806 0 011.166 0 .806.806 0 010 1.166L7 34.167c-.167.166-.333.166-.5.166zm-2.333-13.5H.833C.333 20.833 0 20.5 0 20c0-.5.333-.833.833-.833h3.334c.5 0 .833.333.833.833 0 .5-.333.833-.833.833zM8.833 9.667c-.166 0-.5 0-.666-.167L5.833 7a.806.806 0 010-1.167.806.806 0 011.167 0l2.333 2.334a.806.806 0 010 1.166c-.166.167-.333.334-.5.334zm17.834 11.166c-.5 0-.834-.333-.834-.833 0-3.167-2.666-5.833-5.833-5.833-.5 0-.833-.334-.833-.834 0-.5.333-.833.833-.833 4.167 0 7.5 3.333 7.5 7.5 0 .5-.333.833-.833.833z"/></g></svg>