<svg xmlns="http://www.w3.org/2000/svg" width="310" height="131"><g fill="none" fill-rule="evenodd"><g fill-rule="nonzero"><path fill="#457B9D" fill-opacity=".8" d="M9.865 61.794a2.5 2.5 0 013.506-.626 300 300 0 0162.465 59.41 2.5 2.5 0 01-.449 3.533 2.5 2.5 0 01-3.481-.442 295 295 0 00-61.425-58.42 2.5 2.5 0 01-.616-3.455z"/><g fill="#000" stroke-opacity=".6"><path stroke="#90BBBD" d="M12.683 60.682l8.136-11.558M16.617 63.5h0"/><path stroke="#1D3557" d="M20.506 66.38l22.812-30.283M24.347 69.323l3.061-3.93M28.141 72.327l2.64-3.28M31.885 75.392l3.619-4.349M35.58 78.517h0"/><path stroke="#90BBBD" d="M39.224 81.701l1.772-1.995"/><path stroke="#1D3557" d="M42.816 84.944l3.748-4.086"/><path stroke="#90BBBD" d="M46.355 88.244l2.172-2.292"/><path stroke="#1D3557" d="M49.84 91.601l21.287-21.749M53.271 95.013l6.789-6.715M56.647 98.481l4.235-4.057M59.966 102.002l2.977-2.761M63.227 105.577l28.212-25.33M66.431 109.203l3.065-2.663"/><path stroke="#90BBBD" d="M69.576 112.881l2.043-1.718"/><path stroke="#1D3557" d="M72.661 116.609l11.56-9.41M75.686 120.387l4.356-3.431"/></g><g fill="#718493" fill-opacity=".3" transform="translate(16 26)"><circle cx="27.318" cy="10.097" r="9.774"/><circle cx="11.408" cy="39.393" r="10.927"/><circle cx="19.504" cy="45.043" r="2.443"/><circle cx="30.564" cy="54.858" r="10.927"/><circle cx="55.127" cy="43.852" r="8.104"/><circle cx="44.06" cy="62.298" r="2.443"/><circle cx="44.882" cy="68.424" r="8.464"/><circle cx="46.943" cy="73.241" r="7.33"/><circle cx="75.439" cy="54.247" r="8.81"/><circle cx="68.221" cy="81.199" r="3.455"/><circle cx="64.042" cy="90.956" r="1.728"/></g></g><g fill="#122035"><path fill-rule="nonzero" d="M74.727 54.18v-7.769h2.666v-.896H71.04v.896h2.666v7.77h1.02zm5.684.135c.938 0 1.672-.31 2.203-.928.531-.62.797-1.427.797-2.423 0-.992-.262-1.798-.785-2.417-.524-.62-1.244-.929-2.162-.929-.934 0-1.668.309-2.203.926-.536.617-.803 1.426-.803 2.426 0 .98.267 1.783.8 2.408s1.25.937 2.153.937zm.047-.814c-.649 0-1.142-.23-1.48-.689-.337-.458-.506-1.069-.506-1.83 0-.774.168-1.391.503-1.852.336-.461.825-.692 1.465-.692.66 0 1.152.226 1.474.677.322.451.483 1.07.483 1.855 0 .773-.163 1.388-.489 1.845-.326.457-.81.686-1.45.686zm6.387.797c.246 0 .601-.041 1.066-.123l-.041-.774c-.43.063-.709.094-.838.094-.36 0-.613-.1-.762-.299-.148-.199-.222-.543-.222-1.031v-3.686h1.787v-.726h-1.787v-1.494l-.645.023-.334 1.47-.908.083-.041.644h.955v3.862c.016.687.156 1.185.422 1.494.266.309.715.463 1.348.463zm3.787.017c.422 0 .789-.068 1.101-.205.313-.136.647-.382 1.002-.738.055.29.112.559.17.809h.762v-4.254c0-.84-.177-1.435-.53-1.784-.354-.35-.931-.525-1.732-.525-.406 0-.805.048-1.198.144a4.013 4.013 0 00-1.017.383l.13.35c.081.224.132.36.152.406.644-.312 1.283-.468 1.916-.468.453 0 .785.109.996.328.21.218.316.554.316 1.008v.568l-.583.05c-.26.021-.454.038-.583.05-.937.078-1.655.275-2.153.591-.498.317-.747.803-.747 1.46 0 .59.182 1.041.548 1.356.365.314.848.471 1.45.471zm.146-.79c-.355 0-.635-.088-.838-.264-.203-.176-.304-.436-.304-.78 0-.449.167-.775.5-.978.335-.203.925-.342 1.773-.416.067-.004.208-.016.425-.035.217-.02.335-.03.354-.03v1.084c-.101.434-.329.779-.682 1.035a2.039 2.039 0 01-1.228.383zm6.305.773c.273 0 .611-.033 1.014-.1l-.053-.78c-.367.048-.613.071-.738.071-.153 0-.28-.01-.384-.032a.578.578 0 01-.267-.129.696.696 0 01-.17-.214 1.227 1.227 0 01-.093-.348 4.148 4.148 0 01-.044-.472 18.32 18.32 0 01-.01-.639v-6.457l-.972.059v6.785c0 .832.13 1.416.39 1.752.26.336.702.504 1.327.504zm6.65 0c.246 0 .602-.041 1.067-.123l-.041-.774c-.43.063-.71.094-.838.094-.36 0-.613-.1-.762-.299-.148-.199-.223-.543-.223-1.031v-3.686h1.788v-.726h-1.788v-1.494l-.644.023-.334 1.47-.908.083-.041.644h.955v3.862c.015.687.156 1.185.422 1.494.265.309.715.463 1.347.463zm3.264-7.723v-1.16h-.984v1.16h.984zm0 7.606v-6.428h-.984v6.428h.984zm2.83 0v-3.44c0-.351.018-.678.053-.978.11-.395.323-.711.641-.95.319-.238.712-.357 1.181-.357.211 0 .393.037.545.111a.973.973 0 01.366.3c.092.124.165.287.22.488.055.202.092.409.111.622.02.212.03.463.03.752v3.452h.978v-3.504c0-.32.018-.621.053-.903.129-.418.345-.742.647-.972.303-.23.67-.346 1.099-.346.219 0 .406.04.562.12.157.08.279.184.367.31.087.128.156.3.205.52.049.218.08.433.093.644.014.21.02.472.02.785v3.346h.98v-4.137c0-.8-.168-1.405-.502-1.814-.334-.408-.858-.612-1.573-.612-.965 0-1.681.381-2.15 1.143a1.504 1.504 0 00-.393-.618 1.642 1.642 0 00-.36-.267 2.054 2.054 0 00-.504-.185 2.792 2.792 0 00-.66-.073c-.456 0-.864.102-1.224.305a2.36 2.36 0 00-.832.75l-.123-.92h-.82l.012 6.428h.978zm12.117.134c.836 0 1.58-.199 2.233-.597l-.153-.791c-.683.36-1.365.539-2.045.539-.617 0-1.108-.204-1.473-.612-.365-.409-.554-.978-.566-1.708h4.412l.003-.27.002-.086.001-.172c0-.91-.233-1.638-.7-2.182-.467-.545-1.099-.818-1.895-.818-.848.012-1.532.327-2.051.946-.52.62-.78 1.427-.78 2.423 0 1.032.27 1.844.806 2.438.537.594 1.273.89 2.206.89zm1.418-3.908h-3.392c.054-.613.24-1.096.556-1.45.317-.353.725-.53 1.225-.53.5 0 .892.172 1.178.515.289.34.433.829.433 1.465zm6.504-3.832v-1.16h-.984v1.16h.984zm0 7.606v-6.428h-.984v6.428h.984zm2.83 0v-3.516c0-.34.02-.64.059-.902.101-.387.32-.701.656-.944.336-.242.756-.363 1.26-.363.48 0 .823.127 1.028.38.205.255.316.655.331 1.202.004.169.006 1.351.006 3.547v.596h.979v-4.02c0-.863-.178-1.503-.534-1.919-.355-.416-.904-.624-1.646-.624-.442 0-.853.097-1.234.29-.38.194-.698.448-.952.765l-.123-.92h-.82v6.428h.99zm10.858.134c.71 0 1.275-.163 1.693-.489.418-.326.63-.786.639-1.38 0-.488-.135-.876-.405-1.163-.27-.287-.728-.536-1.377-.747a13.542 13.542 0 01-.486-.164c-.504-.172-.84-.324-1.008-.457-.168-.133-.252-.324-.252-.574 0-.293.117-.52.349-.683.232-.162.554-.243.964-.243.527 0 1.094.125 1.699.375l.287-.75a4.607 4.607 0 00-1.986-.422c-.703 0-1.257.166-1.661.498-.405.332-.607.75-.607 1.254.004.414.126.76.366 1.037.24.278.642.51 1.205.697l.486.17c.594.204.992.387 1.195.551.203.164.305.389.305.674-.027.672-.518 1.008-1.47 1.008-.63 0-1.27-.174-1.923-.522l-.123.827c.23.148.53.269.9.363.369.094.772.14 1.21.14zm3.668 2.655l.978-.065v-2.373c0-.398-.012-.808-.035-1.23.219.304.51.55.873.735.363.186.752.278 1.166.278.547 0 1.024-.143 1.433-.43.408-.287.717-.68.928-1.178.211-.498.317-1.067.317-1.708 0-.668-.097-1.252-.29-1.752a2.57 2.57 0 00-.9-1.19c-.406-.292-.902-.439-1.488-.439-.789 0-1.465.336-2.027 1.008l-.094-.873h-.861v9.217zm2.847-3.48c-.668 0-1.147-.221-1.438-.663-.291-.441-.437-1.098-.437-1.969 0-1.605.621-2.408 1.864-2.408.593 0 1.044.236 1.353.706.309.47.463 1.073.463 1.808 0 .348-.037.67-.111.97a2.798 2.798 0 01-.329.8 1.59 1.59 0 01-.568.553 1.57 1.57 0 01-.797.202zm5.687.825c.422 0 .789-.068 1.101-.205.313-.136.647-.382 1.002-.738.055.29.112.559.17.809h.762v-4.254c0-.84-.177-1.435-.53-1.784-.354-.35-.93-.525-1.732-.525-.406 0-.805.048-1.198.144a4.013 4.013 0 00-1.017.383l.13.35c.081.224.132.36.152.406.644-.312 1.283-.468 1.916-.468.453 0 .785.109.996.328.21.218.316.554.316 1.008v.568a78.75 78.75 0 01-.583.05c-.26.021-.454.038-.583.05-.937.078-1.655.275-2.153.591-.498.317-.747.803-.747 1.46 0 .59.182 1.041.548 1.356.365.314.848.471 1.45.471zm.146-.79c-.355 0-.634-.088-.838-.264-.203-.176-.304-.436-.304-.78 0-.449.167-.775.5-.978.335-.203.926-.342 1.773-.416.067-.004.208-.016.425-.035.217-.02.335-.03.355-.03v1.084c-.102.434-.33.779-.683 1.035a2.039 2.039 0 01-1.228.383zm7.295.79c.696 0 1.256-.154 1.682-.462l-.123-.78c-.527.274-1.043.41-1.547.41-.633 0-1.128-.223-1.485-.67-.358-.448-.536-1.054-.536-1.82 0-.785.18-1.404.542-1.857.36-.453.852-.68 1.473-.68.508 0 .99.123 1.447.37l.27-.763c-.18-.132-.425-.24-.735-.322a3.758 3.758 0 00-.964-.123c-.942 0-1.683.312-2.224.935-.54.623-.813 1.434-.817 2.434 0 .992.266 1.795.8 2.408.533.614 1.272.92 2.217.92zm5.672 0c.836 0 1.58-.199 2.233-.597l-.153-.791c-.683.36-1.365.539-2.045.539-.617 0-1.108-.204-1.473-.612-.366-.409-.554-.978-.566-1.709h4.412l.003-.269.002-.086.001-.172c0-.91-.233-1.638-.7-2.182-.467-.545-1.099-.818-1.895-.818-.848.012-1.532.327-2.051.946-.52.62-.78 1.427-.78 2.423 0 1.032.269 1.844.806 2.438.537.594 1.273.89 2.206.89zm1.418-3.908h-3.392c.054-.613.24-1.096.556-1.45.317-.353.725-.53 1.225-.53.5 0 .892.172 1.178.515.289.34.433.828.433 1.465z"/><path d="M58 54.333l9-4.5-9-4.5v9zm-6-4h5v-1.001h-5v1.001zm-8 0h5v-1.001h-5v1.001zm-8 0h5v-1.001h-5v1.001z"/></g><g fill="#122035"><path fill-rule="nonzero" d="M141.727 84.18v-7.769h2.666v-.896h-6.352v.896h2.666v7.77h1.02zm5.684.135c.938 0 1.672-.31 2.203-.928.531-.62.797-1.427.797-2.423 0-.992-.262-1.798-.785-2.417-.524-.62-1.244-.929-2.162-.929-.934 0-1.668.309-2.203.926-.536.617-.803 1.426-.803 2.426 0 .98.267 1.783.8 2.408s1.25.937 2.153.937zm.047-.814c-.649 0-1.142-.23-1.48-.689-.337-.458-.506-1.069-.506-1.83 0-.774.168-1.391.503-1.852.336-.461.825-.692 1.465-.692.66 0 1.152.226 1.474.677.322.451.483 1.07.483 1.855 0 .773-.163 1.388-.489 1.845-.326.457-.81.686-1.45.686zm6.387.797c.246 0 .601-.041 1.066-.123l-.041-.774c-.43.063-.709.094-.838.094-.36 0-.613-.1-.762-.299-.148-.199-.222-.543-.222-1.031v-3.686h1.787v-.726h-1.787v-1.494l-.645.023-.334 1.47-.908.083-.041.644h.955v3.862c.016.687.156 1.185.422 1.494.266.309.715.463 1.348.463zm3.787.017c.422 0 .789-.068 1.101-.205.313-.136.647-.382 1.002-.738.055.29.112.559.17.809h.762v-4.254c0-.84-.177-1.435-.53-1.784-.354-.35-.931-.525-1.732-.525-.406 0-.805.048-1.198.144a4.013 4.013 0 00-1.017.383l.13.35c.081.224.132.36.152.406.644-.312 1.283-.468 1.916-.468.453 0 .785.109.996.328.21.218.316.554.316 1.008v.568l-.583.05c-.26.021-.454.038-.583.05-.937.078-1.655.275-2.153.591-.498.317-.747.803-.747 1.46 0 .59.182 1.041.548 1.356.365.314.848.471 1.45.471zm.146-.79c-.355 0-.635-.088-.838-.264-.203-.176-.304-.436-.304-.78 0-.449.167-.775.5-.978.335-.203.925-.342 1.773-.416.067-.004.208-.016.425-.035.217-.02.335-.03.354-.03v1.084c-.101.434-.329.779-.682 1.035a2.039 2.039 0 01-1.228.383zm6.305.773c.273 0 .611-.033 1.014-.1l-.053-.78c-.367.048-.613.071-.738.071-.153 0-.28-.01-.384-.032a.578.578 0 01-.267-.129.696.696 0 01-.17-.214 1.227 1.227 0 01-.093-.348 4.148 4.148 0 01-.044-.472 18.32 18.32 0 01-.01-.639v-6.457l-.972.059v6.785c0 .832.13 1.416.39 1.752.26.336.702.504 1.327.504zm6.65 0c.246 0 .602-.041 1.067-.123l-.041-.774c-.43.063-.71.094-.838.094-.36 0-.613-.1-.762-.299-.148-.199-.223-.543-.223-1.031v-3.686h1.788v-.726h-1.788v-1.494l-.644.023-.334 1.47-.908.083-.041.644h.955v3.862c.015.687.156 1.185.422 1.494.265.309.715.463 1.347.463zm3.264-7.723v-1.16h-.984v1.16h.984zm0 7.606v-6.428h-.984v6.428h.984zm2.83 0v-3.44c0-.351.018-.678.053-.978.11-.395.323-.711.641-.95.319-.238.712-.357 1.181-.357.211 0 .393.037.545.111a.973.973 0 01.366.3c.092.124.165.287.22.488.055.202.092.409.111.622.02.212.03.463.03.752v3.452h.978v-3.504c0-.32.018-.621.053-.903.129-.418.345-.742.647-.972.303-.23.67-.346 1.099-.346.219 0 .406.04.562.12.157.08.279.184.367.31.087.128.156.3.205.52.049.218.08.433.093.644.014.21.02.472.02.785v3.346h.98v-4.137c0-.8-.168-1.405-.502-1.814-.334-.408-.858-.612-1.573-.612-.965 0-1.681.381-2.15 1.143a1.504 1.504 0 00-.393-.618 1.642 1.642 0 00-.36-.267 2.054 2.054 0 00-.504-.185 2.792 2.792 0 00-.66-.073c-.456 0-.864.102-1.224.305a2.36 2.36 0 00-.832.75l-.123-.92h-.82l.012 6.428h.978zm12.117.134c.836 0 1.58-.199 2.233-.597l-.153-.791c-.683.36-1.365.539-2.045.539-.617 0-1.108-.204-1.473-.612-.365-.409-.554-.978-.566-1.708h4.412l.003-.27.002-.086.001-.172c0-.91-.233-1.638-.7-2.182-.467-.545-1.099-.818-1.895-.818-.848.012-1.532.327-2.051.946-.52.62-.78 1.427-.78 2.423 0 1.032.27 1.844.806 2.438.537.594 1.273.89 2.206.89zm1.418-3.908h-3.392c.054-.613.24-1.096.556-1.45.317-.353.725-.53 1.225-.53.5 0 .892.172 1.178.515.289.34.433.829.433 1.465zm6.504-3.832v-1.16h-.984v1.16h.984zm0 7.606v-6.428h-.984v6.428h.984zm2.83 0v-3.516c0-.34.02-.64.059-.902.101-.387.32-.701.656-.944.336-.242.756-.363 1.26-.363.48 0 .823.127 1.028.38.205.255.316.655.331 1.202.004.169.006 1.351.006 3.547v.596h.979v-4.02c0-.863-.178-1.503-.534-1.919-.355-.416-.904-.624-1.646-.624-.442 0-.853.097-1.234.29-.38.194-.698.448-.952.765l-.123-.92h-.82v6.428h.99zm10.858.134c.71 0 1.275-.163 1.693-.489.418-.326.63-.786.639-1.38 0-.488-.135-.876-.405-1.163-.27-.287-.728-.536-1.377-.747a13.542 13.542 0 01-.486-.164c-.504-.172-.84-.324-1.008-.457-.168-.133-.252-.324-.252-.574 0-.293.117-.52.349-.683.232-.162.554-.243.964-.243.527 0 1.094.125 1.699.375l.287-.75a4.607 4.607 0 00-1.986-.422c-.703 0-1.257.166-1.661.498-.405.332-.607.75-.607 1.254.004.414.126.76.366 1.037.24.278.642.51 1.205.697l.486.17c.594.204.992.387 1.195.551.203.164.305.389.305.674-.027.672-.518 1.008-1.47 1.008-.63 0-1.27-.174-1.923-.522l-.123.827c.23.148.53.269.9.363.369.094.772.14 1.21.14zm3.668 2.655l.978-.065v-2.373c0-.398-.012-.808-.035-1.23.219.304.51.55.873.735.363.186.752.278 1.166.278.547 0 1.024-.143 1.433-.43.408-.287.717-.68.928-1.178.211-.498.317-1.067.317-1.708 0-.668-.097-1.252-.29-1.752a2.57 2.57 0 00-.9-1.19c-.406-.292-.902-.439-1.488-.439-.789 0-1.465.336-2.027 1.008l-.094-.873h-.861v9.217zm2.847-3.48c-.668 0-1.147-.221-1.438-.663-.291-.441-.437-1.098-.437-1.969 0-1.605.621-2.408 1.864-2.408.593 0 1.044.236 1.353.706.309.47.463 1.073.463 1.808 0 .348-.037.67-.111.97a2.798 2.798 0 01-.329.8 1.59 1.59 0 01-.568.553 1.57 1.57 0 01-.797.202zm5.687.825c.422 0 .789-.068 1.101-.205.313-.136.647-.382 1.002-.738.055.29.112.559.17.809h.762v-4.254c0-.84-.177-1.435-.53-1.784-.354-.35-.93-.525-1.732-.525-.406 0-.805.048-1.198.144a4.013 4.013 0 00-1.017.383l.13.35c.081.224.132.36.152.406.644-.312 1.283-.468 1.916-.468.453 0 .785.109.996.328.21.218.316.554.316 1.008v.568a78.75 78.75 0 01-.583.05c-.26.021-.454.038-.583.05-.937.078-1.655.275-2.153.591-.498.317-.747.803-.747 1.46 0 .59.182 1.041.548 1.356.365.314.848.471 1.45.471zm.146-.79c-.355 0-.634-.088-.838-.264-.203-.176-.304-.436-.304-.78 0-.449.167-.775.5-.978.335-.203.926-.342 1.773-.416.067-.004.208-.016.425-.035.217-.02.335-.03.355-.03v1.084c-.102.434-.33.779-.683 1.035a2.039 2.039 0 01-1.228.383zm7.295.79c.696 0 1.256-.154 1.682-.462l-.123-.78c-.527.274-1.043.41-1.547.41-.633 0-1.128-.223-1.485-.67-.358-.448-.536-1.054-.536-1.82 0-.785.18-1.404.542-1.857.36-.453.852-.68 1.473-.68.508 0 .99.123 1.447.37l.27-.763c-.18-.132-.425-.24-.735-.322a3.758 3.758 0 00-.964-.123c-.942 0-1.683.312-2.224.935-.54.623-.813 1.434-.817 2.434 0 .992.266 1.795.8 2.409.533.613 1.272.92 2.217.92zm5.672 0c.836 0 1.58-.199 2.233-.597l-.153-.791c-.683.36-1.365.539-2.045.539-.617 0-1.108-.204-1.473-.612-.366-.409-.554-.978-.566-1.708h4.412l.003-.27.002-.086.001-.172c0-.91-.233-1.638-.7-2.182-.467-.545-1.099-.818-1.895-.818-.848.012-1.532.327-2.051.946-.52.62-.78 1.427-.78 2.423 0 1.032.269 1.844.806 2.438.537.594 1.273.89 2.206.89zm1.418-3.908h-3.392c.054-.613.24-1.096.556-1.45.317-.353.725-.53 1.225-.53.5 0 .892.172 1.178.515.289.34.433.829.433 1.465zm4.518 3.774c.097-.301.24-.737.427-1.307.188-.57.34-1.035.457-1.395.118-.359.254-.789.41-1.289.157-.5.296-.964.417-1.394.215.707.773 2.502 1.675 5.385h1.061l1.852-6.428h-1.002l-1.36 5.244c-.164-.55-.71-2.299-1.64-5.244h-1.108a529.695 529.695 0 00-1.687 5.262l-1.377-5.262h-1.014l1.834 6.428h1.055zm8.748.134c.422 0 .789-.068 1.101-.205.313-.136.647-.382 1.002-.738.055.29.111.559.17.809h.762v-4.254c0-.84-.177-1.435-.53-1.784-.354-.35-.931-.525-1.732-.525-.406 0-.806.048-1.198.144a4.013 4.013 0 00-1.017.383l.13.35c.081.224.132.36.151.406.645-.312 1.284-.468 1.916-.468.454 0 .786.109.997.328.21.218.316.554.316 1.008v.568a78.75 78.75 0 01-.583.05c-.26.021-.454.038-.583.05-.938.078-1.655.275-2.153.591-.498.317-.747.803-.747 1.46 0 .59.182 1.041.547 1.356.366.314.85.471 1.45.471zm.146-.79c-.355 0-.635-.088-.838-.264-.203-.176-.304-.436-.304-.78 0-.449.167-.775.5-.978.335-.203.925-.342 1.773-.416.066-.004.208-.016.425-.035.217-.02.335-.03.354-.03v1.084c-.101.434-.329.779-.682 1.035a2.039 2.039 0 01-1.228.383zm6.305.773c.273 0 .611-.033 1.013-.1l-.052-.78c-.367.048-.614.071-.739.071-.152 0-.28-.01-.383-.032a.578.578 0 01-.267-.129.696.696 0 01-.17-.214 1.227 1.227 0 01-.094-.348 4.148 4.148 0 01-.044-.472c-.005-.16-.008-.373-.008-.639v-6.457l-.973.059v6.785c0 .832.13 1.416.39 1.752.26.336.702.504 1.327.504zm2.59-.117v-2.55l.715-.614 2.35 3.164h1.218l-2.86-3.721 2.672-2.707h-1.242c-1.418 1.426-2.297 2.324-2.637 2.695a2.323 2.323 0 00-.11.123l-.044.05a1.57 1.57 0 01-.062.067v-5.49l-.973.059v8.924h.973z"/><path d="M125 84.333l9-4.5-9-4.5v9zm-6-4h5v-1.001h-5v1.001zm-8 0h5v-1.001h-5v1.001zm-8 0h5v-1.001h-5v1.001z"/></g></g></svg>