<svg xmlns="http://www.w3.org/2000/svg" width="322" height="129"><g fill="none" fill-rule="evenodd"><path stroke="#F1FAEE" d="M1 1h320v127H1z"/><g fill="#457B9D" fill-opacity=".8" fill-rule="nonzero"><path d="M15 2.532A1.534 1.534 0 0116.55 1c5.371.079 10.735.393 16.078.944a1.528 1.528 0 011.362 1.703 1.53 1.53 0 01-1.675 1.345 179.96 179.96 0 00-15.809-.928A1.53 1.53 0 0115 2.532zm21.01 1.769a1.47 1.47 0 01.564-.99c.314-.243.712-.35 1.107-.298a179.717 179.717 0 0121.205 4.089c.385.098.714.346.914.687.2.341.252.747.147 1.127a1.487 1.487 0 01-1.804 1.037A176.722 176.722 0 0037.29 5.932a1.475 1.475 0 01-1.28-1.631zm26.044 4.824c.106-.395.365-.73.717-.93.352-.2.768-.249 1.156-.135a179.369 179.369 0 0134.271 14.06c.357.192.623.52.738.912.116.392.072.815-.121 1.174a1.496 1.496 0 01-2.027.616 176.38 176.38 0 00-33.7-13.825 1.532 1.532 0 01-1.034-1.872zm38.133 15.682c.196-.365.527-.634.918-.748a1.491 1.491 0 011.166.143 181.82 181.82 0 0111.05 6.95c.34.23.574.59.651.998.078.409-.009.832-.239 1.175a1.5 1.5 0 01-2.096.415 178.79 178.79 0 00-10.866-6.833 1.573 1.573 0 01-.584-2.1z" opacity=".395"/><path d="M115.262 34.645a1.494 1.494 0 012.095-.372 178.875 178.875 0 0137.324 35.322 1.481 1.481 0 01-.269 2.1 1.499 1.499 0 01-2.08-.263A175.894 175.894 0 00115.631 36.7a1.482 1.482 0 01-.369-2.054z"/><path d="M155.602 73.303a1.57 1.57 0 011.143-.288 1.54 1.54 0 011.015.584 176.673 176.673 0 0115.065 23.236c.19.35.227.76.102 1.137s-.401.69-.767.869c-.746.364-1.657.082-2.046-.634A173.728 173.728 0 00155.3 75.359a1.446 1.446 0 01.302-2.056zm18.2 27.855a1.456 1.456 0 011.973.667 176.49 176.49 0 016.128 14.183 1.473 1.473 0 01-.862 1.902 1.46 1.46 0 01-1.867-.853 173.548 173.548 0 00-6.026-13.947 1.47 1.47 0 01.655-1.952z" opacity=".395"/></g><text fill="#122035" font-family="Oxygen-Regular, Oxygen" font-size="12" transform="translate(1 1)"><tspan x="178" y="51">A cohort of astronauts</tspan></text><path fill="#122035" fill-rule="nonzero" d="M164 44l9 4.5-9 4.5v-9zm-17 4v1h-5v-1h5zm8 0v1h-5v-1h5zm8 0v1h-5v-1h5z"/></g></svg>